<?xml version="1.0" standalone="no"?><!DOCTYPE svg PUBLIC "-//W3C//DTD SVG 1.1//EN" "http://www.w3.org/Graphics/SVG/1.1/DTD/svg11.dtd"><svg t="1682489989655" class="icon" viewBox="0 0 1024 1024" version="1.1" xmlns="http://www.w3.org/2000/svg" p-id="5533" xmlns:xlink="http://www.w3.org/1999/xlink" width="200" height="200"><path d="M512 58.016l-18.016 10.976-384 256L96 335.04V896h832V335.008l-14.016-10.016-384-256L512 57.984z m0 76.992l328 218.976L544 576v-226.016l72.992 73.024 46.016-46.016-128-128L512 227.008l-23.008 21.984-128 128 46.016 46.016L480 350.016V576l-296-222.016L512 135.04zM160 416l332.992 250.016 19.008 13.984 19.008-14.016L864 416v416H160V416z" p-id="5534"></path></svg>